<svg width="512" height="512" viewBox="0 0 512 512" fill="none" xmlns="http://www.w3.org/2000/svg">
  <!-- Background -->
  <rect width="512" height="512" rx="128" fill="#2563EB"/>

  <!-- Activity/Training Icon -->
  <path d="M256 96C291.346 96 320 124.654 320 160C320 195.346 291.346 224 256 224C220.654 224 192 195.346 192 160C192 124.654 220.654 96 256 96Z" fill="white"/>

  <!-- Body -->
  <path d="M256 240C314.692 240 362 287.308 362 346V416H150V346C150 287.308 197.308 240 256 240Z" fill="white"/>

  <!-- Heart/Activity Line -->
  <path d="M180 310L220 270L240 300L272 260L292 290L332 250" stroke="white" stroke-width="12" stroke-linecap="round" stroke-linejoin="round" fill="none" opacity="0.6"/>

  <!-- Letter B -->
  <text x="256" y="390" font-family="Arial, sans-serif" font-size="120" font-weight="bold" fill="#2563EB" text-anchor="middle">B</text>
</svg>
